<svg xmlns="http://www.w3.org/2000/svg" viewBox="0 0 64 64">
  <rect width="64" height="64" rx="14" fill="#04060d"/>
  <path d="M32.0 6.0 L35.83 22.76 L50.38 13.62 L41.24 28.17 L58.0 32.0 L41.24 35.83 L50.38 50.38 L35.83 41.24 L32.0 58.0 L28.17 41.24 L13.62 50.38 L22.76 35.83 L6.0 32.0 L22.76 28.17 L13.62 13.62 L28.17 22.76 Z" fill="none" stroke="#ffb869" stroke-width="2.4" stroke-linejoin="round"/>
  <path d="M32.0 20.0 L33.91 27.38 L40.49 23.51 L36.62 30.09 L44.0 32.0 L36.62 33.91 L40.49 40.49 L33.91 36.62 L32.0 44.0 L30.09 36.62 L23.51 40.49 L27.38 33.91 L20.0 32.0 L27.38 30.09 L23.51 23.51 L30.09 27.38 Z" fill="none" stroke="#f0852e" stroke-width="1.8" stroke-linejoin="round" opacity="0.7"/>
  <circle cx="32" cy="32" r="3" fill="#ffd9a8"/>
</svg>